<?xml version="1.0" encoding="UTF-8" standalone="no"?>
<svg
   xmlns:dc="http://purl.org/dc/elements/1.1/"
   xmlns:cc="http://creativecommons.org/ns#"
   xmlns:rdf="http://www.w3.org/1999/02/22-rdf-syntax-ns#"
   xmlns:svg="http://www.w3.org/2000/svg"
   xmlns="http://www.w3.org/2000/svg"
   viewBox="0 0 3779.5332 5291.3335"
   height="5291.3335"
   width="3779.5332"
   xml:space="preserve"
   id="svg2"
   version="1.1"><metadata
     id="metadata8"><rdf:RDF><cc:Work
         rdf:about=""><dc:format>image/svg+xml</dc:format><dc:type
           rdf:resource="http://purl.org/dc/dcmitype/StillImage" /></cc:Work></rdf:RDF></metadata><defs
     id="defs6" /><g
     transform="matrix(1.3333333,0,0,-1.3333333,0,5291.3333)"
     id="g10"><path
       id="path12"
       style="fill:none;stroke:#999999;stroke-width:1;stroke-linecap:butt;stroke-linejoin:miter;stroke-miterlimit:10;stroke-dasharray:none;stroke-opacity:1"
       d="m 2345.1,2976.091 h -595.275 v 538.583 H 2345.1 Z m 0,-581.102 h -595.275 v 538.583 H 2345.1 Z M 2146.675,2182.39 h -396.851 v 170.079 h 396.851 z m 0,-42.519 v -368.504 h -595.276 v 411.023 h -425.196 v 170.079 h 425.196 v 836.22 h 155.907 V 2139.871 Z m 0,-1148.032 H 1551.4 v 737.008 h 595.275 z M 1253.761,453.257 H 970.297 v 496.062 h 283.464 z m 892.914,0 h -850.394 v 496.062 h 850.394 z M 970.297,1303.65 H 1508.88 V 991.839 H 970.297 Z m -10e-4,42.521 v 170.078 H 488.407 v 623.622 H 1508.88 v -793.7 z M 488.407,2720.973 h 595.275 V 2182.39 H 488.407 Z m 637.796,212.598 h 382.677 v -538.583 h -382.677 z m 581.103,297.638 H 1508.88 V 2976.091 H 1083.683 V 2763.493 H 445.887 V 1473.729 h 481.89 V 410.737 h 1261.416 v 1941.732 h 198.427 v 1204.724 h -680.314 z" /><path
       id="path14"
       style="fill:none;stroke:#999999;stroke-width:1;stroke-linecap:butt;stroke-linejoin:miter;stroke-miterlimit:10;stroke-dasharray:none;stroke-opacity:1"
       d="m 970.296,772.154 h -42.52 v 141.732 h 42.52 z" /><path
       id="path16"
       style="fill:none;stroke:#999999;stroke-width:1;stroke-linecap:butt;stroke-linejoin:miter;stroke-miterlimit:10;stroke-dasharray:none;stroke-opacity:1"
       d="M 1296.281,779.24 H 1253.76 V 906.8 h 42.521 z" /><path
       id="path18"
       style="fill:none;stroke:#999999;stroke-width:1;stroke-linecap:butt;stroke-linejoin:miter;stroke-miterlimit:10;stroke-dasharray:none;stroke-opacity:1"
       d="m 2189.194,524.123 h -42.52 v 354.331 h 42.52 z" /><path
       id="path20"
       style="fill:none;stroke:#999999;stroke-width:1;stroke-linecap:butt;stroke-linejoin:miter;stroke-miterlimit:10;stroke-dasharray:none;stroke-opacity:1"
       d="M 1466.36,949.319 H 1338.801 V 991.84 H 1466.36 Z" /><path
       id="path22"
       style="fill:none;stroke:#999999;stroke-width:1;stroke-linecap:butt;stroke-linejoin:miter;stroke-miterlimit:10;stroke-dasharray:none;stroke-opacity:1"
       d="m 1551.399,1034.359 h -42.52 v 127.559 h 42.52 z" /><path
       id="path24"
       style="fill:none;stroke:#999999;stroke-width:1;stroke-linecap:butt;stroke-linejoin:miter;stroke-miterlimit:10;stroke-dasharray:none;stroke-opacity:1"
       d="m 2189.194,1877.666 h -42.52 v 141.732 h 42.52 z" /><path
       id="path26"
       style="fill:none;stroke:#999999;stroke-width:1;stroke-linecap:butt;stroke-linejoin:miter;stroke-miterlimit:10;stroke-dasharray:none;stroke-opacity:1"
       d="m 1508.88,3153.256 h 42.52 v -141.732 h -42.52 z" /><path
       id="path28"
       style="fill:none;stroke:#999999;stroke-width:1;stroke-linecap:butt;stroke-linejoin:miter;stroke-miterlimit:10;stroke-dasharray:none;stroke-opacity:1"
       d="m 1749.824,2203.65 h -42.519 v 127.559 h 42.519 z" /><path
       id="path30"
       style="fill:none;stroke:#999999;stroke-width:1;stroke-linecap:butt;stroke-linejoin:miter;stroke-miterlimit:10;stroke-dasharray:none;stroke-opacity:1"
       d="m 1749.824,2437.508 h -42.519 v 127.559 h 42.519 z" /><path
       id="path32"
       style="fill:none;stroke:#999999;stroke-width:1;stroke-linecap:butt;stroke-linejoin:miter;stroke-miterlimit:10;stroke-dasharray:none;stroke-opacity:1"
       d="m 1749.824,3018.611 h -42.519 v 127.559 h 42.519 z" /><path
       id="path34"
       style="fill:none;stroke:#999999;stroke-width:1;stroke-linecap:butt;stroke-linejoin:miter;stroke-miterlimit:10;stroke-dasharray:none;stroke-opacity:1"
       d="m 1381.321,2352.469 h -127.559 v 42.52 h 127.559 z" /><path
       id="path36"
       style="fill:none;stroke:#999999;stroke-width:1;stroke-linecap:butt;stroke-linejoin:miter;stroke-miterlimit:10;stroke-dasharray:none;stroke-opacity:1"
       d="m 1126.203,2203.65 h -42.52 v 127.559 h 42.52 z" /><path
       id="path38"
       style="fill:none;stroke:#999999;stroke-width:1;stroke-linecap:butt;stroke-linejoin:miter;stroke-miterlimit:10;stroke-dasharray:none;stroke-opacity:1"
       d="M 871.084,1473.729 H 587.619 v 42.52 h 283.465 z" /><path
       id="path40"
       style="fill:none;stroke:#999999;stroke-width:1;stroke-linecap:butt;stroke-linejoin:miter;stroke-miterlimit:10;stroke-dasharray:none;stroke-opacity:1"
       d="m 1551.4,1891.839 h -42.521 v 127.559 h 42.521 z" /><path
       id="path42"
       style="fill:none;stroke:#999999;stroke-width:1;stroke-linecap:butt;stroke-linejoin:miter;stroke-miterlimit:10;stroke-dasharray:none;stroke-opacity:1"
       d="m 1551.4,1558.768 h -42.521 v 127.56 h 42.521 z" /><path
       id="path44"
       style="fill:none;stroke:#999999;stroke-width:1;stroke-linecap:butt;stroke-linejoin:miter;stroke-miterlimit:10;stroke-dasharray:none;stroke-opacity:1"
       d="m 1721.479,1728.847 h -127.56 v 42.52 h 127.56 z" /><path
       id="path46"
       style="fill:none;stroke:#999999;stroke-width:1;stroke-linecap:butt;stroke-linejoin:miter;stroke-miterlimit:10;stroke-dasharray:none;stroke-opacity:1"
       d="m 970.296,524.123 h -42.52 v 141.732 h 42.52 z" /><path
       id="path48"
       style="fill:none;stroke:#999999;stroke-width:1;stroke-linecap:butt;stroke-linejoin:miter;stroke-miterlimit:10;stroke-dasharray:none;stroke-opacity:1"
       d="m 2189.194,1076.879 h -42.52 v 141.732 h 42.52 z" /><path
       id="path50"
       style="fill:none;stroke:#999999;stroke-width:1;stroke-linecap:butt;stroke-linejoin:miter;stroke-miterlimit:10;stroke-dasharray:none;stroke-opacity:1"
       d="m 2189.194,1289.477 h -42.52 v 141.732 h 42.52 z" /><path
       id="path52"
       style="fill:none;stroke:#999999;stroke-width:1;stroke-linecap:butt;stroke-linejoin:miter;stroke-miterlimit:10;stroke-dasharray:none;stroke-opacity:1"
       d="m 2189.194,1502.076 h -42.52 v 141.732 h 42.52 z" /><path
       id="path54"
       style="fill:none;stroke:#999999;stroke-width:1;stroke-linecap:butt;stroke-linejoin:miter;stroke-miterlimit:10;stroke-dasharray:none;stroke-opacity:1"
       d="m 970.297,1020.185 h -42.52 v 141.732 h 42.52 z" /><path
       id="path56"
       style="fill:none;stroke:#999999;stroke-width:1;stroke-linecap:butt;stroke-linejoin:miter;stroke-miterlimit:10;stroke-dasharray:none;stroke-opacity:1"
       d="m 488.406,1572.942 h -42.52 v 510.236 h 42.52 z" /><path
       id="path58"
       style="fill:none;stroke:#999999;stroke-width:1;stroke-linecap:butt;stroke-linejoin:miter;stroke-miterlimit:10;stroke-dasharray:none;stroke-opacity:1"
       d="m 488.406,2267.43 h -42.52 v 141.732 h 42.52 z" /><path
       id="path60"
       style="fill:none;stroke:#999999;stroke-width:1;stroke-linecap:butt;stroke-linejoin:miter;stroke-miterlimit:10;stroke-dasharray:none;stroke-opacity:1"
       d="m 488.406,2494.201 h -42.52 v 141.732 h 42.52 z" /><path
       id="path62"
       style="fill:none;stroke:#999999;stroke-width:1;stroke-linecap:butt;stroke-linejoin:miter;stroke-miterlimit:10;stroke-dasharray:none;stroke-opacity:1"
       d="M 715.178,2720.973 H 573.446 v 42.52 h 141.732 z" /><path
       id="path64"
       style="fill:none;stroke:#999999;stroke-width:1;stroke-linecap:butt;stroke-linejoin:miter;stroke-miterlimit:10;stroke-dasharray:none;stroke-opacity:1"
       d="m 2260.061,3514.674 h -141.732 v 42.52 h 141.732 z" /><path
       id="path66"
       style="fill:none;stroke:#999999;stroke-width:1;stroke-linecap:butt;stroke-linejoin:miter;stroke-miterlimit:10;stroke-dasharray:none;stroke-opacity:1"
       d="m 2387.619,2480.028 h -42.52 v 141.732 h 42.52 z" /><path
       id="path68"
       style="fill:none;stroke:#999999;stroke-width:1;stroke-linecap:butt;stroke-linejoin:miter;stroke-miterlimit:10;stroke-dasharray:none;stroke-opacity:1"
       d="m 2387.619,2706.8 h -42.52 v 141.732 h 42.52 z" /><path
       id="path70"
       style="fill:none;stroke:#999999;stroke-width:1;stroke-linecap:butt;stroke-linejoin:miter;stroke-miterlimit:10;stroke-dasharray:none;stroke-opacity:1"
       d="m 2387.619,3061.13 h -42.52 v 141.732 h 42.52 z" /><path
       id="path72"
       style="fill:none;stroke:#999999;stroke-width:1;stroke-linecap:butt;stroke-linejoin:miter;stroke-miterlimit:10;stroke-dasharray:none;stroke-opacity:1"
       d="m 2387.619,3287.902 h -42.52 v 141.732 h 42.52 z" /><path
       id="path74"
       style="fill:none;stroke:#999999;stroke-width:1;stroke-linecap:butt;stroke-linejoin:miter;stroke-miterlimit:10;stroke-dasharray:none;stroke-opacity:1"
       d="m 2189.195,2239.083 h -42.521 v 56.693 h 42.521 z" /><path
       id="path76"
       style="fill:none;stroke:#999999;stroke-width:1;stroke-linecap:butt;stroke-linejoin:miter;stroke-miterlimit:10;stroke-dasharray:none;stroke-opacity:1"
       d="m 1239.588,2976.091 h 56.693 v -42.52 h -56.693 z" /><path
       id="path78"
       style="fill:none;stroke:#999999;stroke-width:1;stroke-linecap:butt;stroke-linejoin:miter;stroke-miterlimit:10;stroke-dasharray:none;stroke-opacity:1"
       d="m 1338.801,2976.091 h 56.693 v -42.52 h -56.693 z" /></g></svg>